<?xml version="1.0" encoding="UTF-8" standalone="no"?>
<!-- Created with Inkscape (http://www.inkscape.org/) -->

<svg
   xmlns:dc="http://purl.org/dc/elements/1.1/"
   xmlns:cc="http://creativecommons.org/ns#"
   xmlns:rdf="http://www.w3.org/1999/02/22-rdf-syntax-ns#"
   xmlns:svg="http://www.w3.org/2000/svg"
   xmlns="http://www.w3.org/2000/svg"
   xmlns:sodipodi="http://sodipodi.sourceforge.net/DTD/sodipodi-0.dtd"
   xmlns:inkscape="http://www.inkscape.org/namespaces/inkscape"
   width="113.76155mm"
   height="99.927963mm"
   viewBox="0 0 113.76155 99.927963"
   version="1.1"
   id="svg1543"
   inkscape:version="0.92.5 (2060ec1f9f, 2020-04-08)"
   sodipodi:docname="parallelogram.svg">
  <defs
     id="defs1537">
    <marker
       inkscape:isstock="true"
       style="overflow:visible"
       id="marker2533"
       refX="0"
       refY="0"
       orient="auto"
       inkscape:stockid="Arrow1Lend">
      <path
         transform="matrix(-0.8,0,0,-0.8,-10,0)"
         style="fill:#d49131;fill-opacity:1;fill-rule:evenodd;stroke:#d49131;stroke-width:1.00000003pt;stroke-opacity:1"
         d="M 0,0 5,-5 -12.5,0 5,5 Z"
         id="path2531"
         inkscape:connector-curvature="0" />
    </marker>
    <marker
       inkscape:isstock="true"
       style="overflow:visible"
       id="marker2491"
       refX="0"
       refY="0"
       orient="auto"
       inkscape:stockid="Arrow1Lend">
      <path
         transform="matrix(-0.8,0,0,-0.8,-10,0)"
         style="fill:#2054c1;fill-opacity:1;fill-rule:evenodd;stroke:#2054c1;stroke-width:1.00000003pt;stroke-opacity:1"
         d="M 0,0 5,-5 -12.5,0 5,5 Z"
         id="path2489"
         inkscape:connector-curvature="0" />
    </marker>
    <marker
       inkscape:stockid="Arrow1Lend"
       orient="auto"
       refY="0"
       refX="0"
       id="marker2455"
       style="overflow:visible"
       inkscape:isstock="true"
       inkscape:collect="always">
      <path
         id="path2453"
         d="M 0,0 5,-5 -12.5,0 5,5 Z"
         style="fill:#ffffff;fill-opacity:1;fill-rule:evenodd;stroke:#ffffff;stroke-width:1.00000003pt;stroke-opacity:1"
         transform="matrix(-0.8,0,0,-0.8,-10,0)"
         inkscape:connector-curvature="0" />
    </marker>
    <marker
       inkscape:stockid="Arrow1Lend"
       orient="auto"
       refY="0"
       refX="0"
       id="Arrow1Lend"
       style="overflow:visible"
       inkscape:isstock="true"
       inkscape:collect="always">
      <path
         id="path2157"
         d="M 0,0 5,-5 -12.5,0 5,5 Z"
         style="fill:#fefefe;fill-opacity:1;fill-rule:evenodd;stroke:#fefefe;stroke-width:1.00000003pt;stroke-opacity:1"
         transform="matrix(-0.8,0,0,-0.8,-10,0)"
         inkscape:connector-curvature="0" />
    </marker>
  </defs>
  <sodipodi:namedview
     id="base"
     pagecolor="#343434"
     bordercolor="#666666"
     borderopacity="1.0"
     inkscape:pageopacity="0"
     inkscape:pageshadow="2"
     inkscape:zoom="0.90509668"
     inkscape:cx="143.9644"
     inkscape:cy="71.937444"
     inkscape:document-units="mm"
     inkscape:current-layer="layer1"
     showgrid="false"
     inkscape:window-width="1920"
     inkscape:window-height="1013"
     inkscape:window-x="1920"
     inkscape:window-y="0"
     inkscape:window-maximized="1"
     fit-margin-top="0.5"
     fit-margin-left="0.5"
     fit-margin-bottom="0.5"
     fit-margin-right="0.5" />
  <metadata
     id="metadata1540">
    <rdf:RDF>
      <cc:Work
         rdf:about="">
        <dc:format>image/svg+xml</dc:format>
        <dc:type
           rdf:resource="http://purl.org/dc/dcmitype/StillImage" />
        <dc:title></dc:title>
      </cc:Work>
    </rdf:RDF>
  </metadata>
  <g
     inkscape:label="Layer 1"
     inkscape:groupmode="layer"
     id="layer1"
     transform="translate(-44.506858,-13.438201)">
    <path
       transform="rotate(-18.860975)"
       style="opacity:0.503;fill:none;fill-opacity:1;stroke:#ffffff;stroke-width:0.565;stroke-linecap:square;stroke-miterlimit:4;stroke-dasharray:0.565, 1.695;stroke-dashoffset:0;stroke-opacity:1"
       d="m 49.192498,64.487544 h 94.880682 l -42.8878,56.687126 H 6.3046994 Z"
       id="rect2088"
       inkscape:connector-curvature="0"
       sodipodi:nodetypes="ccccc" />
    <path
       style="fill:none;stroke:#fefefe;stroke-width:0.26458332px;stroke-linecap:butt;stroke-linejoin:miter;stroke-opacity:1;marker-end:url(#Arrow1Lend)"
       d="M 45.138665,112.63015 67.398222,45.122329"
       id="path2152"
       inkscape:connector-curvature="0" />
    <path
       style="fill:none;stroke:#ffffff;stroke-width:0.26458332px;stroke-linecap:butt;stroke-linejoin:miter;stroke-opacity:1;marker-end:url(#marker2455)"
       d="M 45.138665,112.63015 134.9248,81.95779"
       id="path2451"
       inkscape:connector-curvature="0" />
    <path
       style="fill:none;stroke:#2054c1;stroke-width:0.40000001;stroke-linecap:butt;stroke-linejoin:miter;stroke-miterlimit:4;stroke-dasharray:none;stroke-opacity:1;marker-end:url(#marker2491)"
       d="M 134.9248,81.95779 67.398222,45.122329"
       id="path2481"
       inkscape:connector-curvature="0" />
    <path
       style="fill:none;stroke:#d49131;stroke-width:0.40000001;stroke-linecap:butt;stroke-linejoin:miter;stroke-miterlimit:4;stroke-dasharray:none;stroke-opacity:1;marker-end:url(#marker2533)"
       d="M 45.138665,112.63015 157.18436,14.449973"
       id="path2523"
       inkscape:connector-curvature="0" />
    <g
       id="g3044"
       transform="matrix(0.663377,0,0,0.663377,32.013318,-21.960086)"
       style="fill:#ffffff;fill-opacity:1">
      <g
         word-spacing="normal"
         letter-spacing="normal"
         font-size-adjust="none"
         font-stretch="normal"
         font-weight="normal"
         font-variant="normal"
         font-style="normal"
         stroke-miterlimit="10.433"
         xml:space="preserve"
         transform="matrix(0.3,0,0,-0.3,-276.79773,296.78147)"
         id="g3042"
         style="font-style:normal;font-variant:normal;font-weight:normal;font-stretch:normal;letter-spacing:normal;word-spacing:normal;text-anchor:start;fill:#ffffff;fill-opacity:1;fill-rule:evenodd;stroke:#000000;stroke-linecap:butt;stroke-linejoin:miter;stroke-miterlimit:10.43299961;stroke-dasharray:none;stroke-dashoffset:0;stroke-opacity:1"><path
           id="path3040"
           d="m 1228.8,350.83 v -0.18 -0.18 -0.17 l -0.1,-0.17 v -0.17 -0.18 -0.17 -0.18 -0.19 l -0.1,-0.09 v -0.1 -0.1 -0.11 -0.11 -0.11 l -0.1,-0.11 v -0.12 -0.12 -0.13 l -0.1,-0.13 v -0.14 -0.14 -0.15 c -0.1,-0.59 -0.2,-0.73 -0.2,-1.09 0.7,-0.39 1.5,-0.6 2.1,-0.6 1.6,0 3.6,1.44 5.1,3.79 l 3.8,5.82 0.6,-3.43 c 0.6,-4.24 1.8,-6.18 3.6,-6.18 1,0 2.7,0.85 4.2,2.3 l 2.5,2.19 -0.5,0.94 c -1.8,-1.49 -3,-2.24 -3.8,-2.24 -0.7,0 -1.4,0.5 -1.9,1.5 -0.4,0.94 -1,2.78 -1.2,4.24 l -0.9,5.03 1.7,2.44 c 2.4,3.23 3.7,4.39 5.3,4.39 0.8,0 1.3,-0.41 1.6,-1.16 l 0.7,0.2 0.7,4.24 c -0.6,0.34 -1,0.5 -1.5,0.5 -2,0 -3.9,-1.8 -7,-6.38 l -1.9,-2.75 -0.3,2.39 c -0.6,4.94 -1.9,6.74 -4.9,6.74 -1.3,0 -2.4,-0.41 -2.8,-1.05 l -2.9,-4.14 0.9,-0.5 c 1.4,1.7 2.4,2.39 3.4,2.39 1.6,0 2.7,-2.03 3.6,-6.92 l 0.5,-3.08 -2,-3.09 c -2.1,-3.35 -3.8,-4.94 -5.2,-4.94 -0.8,0 -1.3,0.2 -1.4,0.45 l -0.5,1.39 z"
           inkscape:connector-curvature="0"
           style="fill:#ffffff;fill-opacity:1;stroke-width:0" /></g>    </g>
    <g
       id="g3081"
       transform="matrix(0.663377,0,0,0.663377,-163.75474,-0.46644332)"
       style="fill:#ffffff;fill-opacity:1">
      <g
         word-spacing="normal"
         letter-spacing="normal"
         font-size-adjust="none"
         font-stretch="normal"
         font-weight="normal"
         font-variant="normal"
         font-style="normal"
         stroke-miterlimit="10.433"
         xml:space="preserve"
         transform="matrix(0.3,0,0,-0.3,-52.5,222.75)"
         id="g3079"
         style="font-style:normal;font-variant:normal;font-weight:normal;font-stretch:normal;letter-spacing:normal;word-spacing:normal;text-anchor:start;fill:#ffffff;fill-opacity:1;fill-rule:evenodd;stroke:#000000;stroke-linecap:butt;stroke-linejoin:miter;stroke-miterlimit:10.43299961;stroke-dasharray:none;stroke-dashoffset:0;stroke-opacity:1"><path
           id="path3077"
           d="m 1228.6,337.47 v -0.06 -0.06 -0.07 l -0.1,-0.06 v -0.06 -0.05 -0.06 -0.06 -0.05 -0.06 -0.05 -0.05 -0.05 -0.05 -0.05 -0.05 c 0,-2.14 1.9,-3.89 4.1,-3.89 5.3,0 10.8,6.17 13.7,15.39 l 7,21.92 -0.5,0.46 c -1.5,-0.55 -2.6,-0.85 -3.7,-0.96 l -1.7,-6.57 c -0.6,-2.33 -2.4,-5.97 -4,-8.41 -1.8,-2.55 -4.2,-4.73 -5.3,-4.73 -0.6,0 -1,1.14 -1,2.39 v 0.64 l 0.8,9.67 c 0.1,1.55 0.2,3.44 0.2,4.83 0,2.23 -0.4,3.14 -1.2,3.14 -0.7,0 -1.3,-0.35 -3.7,-2 l -4.1,-2.78 0.5,-0.91 2.5,1.5 0.2,0.16 c 0.5,0.29 0.9,0.43 1.1,0.43 0.7,0 1,-0.93 1,-2.57 0,-0.07 0,-0.36 0,-0.75 l -0.8,-12.11 -0.1,-2 c 0,-2.1 0.9,-3.54 2.1,-3.54 1.9,0 6.1,4.24 9.8,9.86 l -2.4,-8.51 c -2.6,-8.81 -5.1,-12.45 -8.6,-12.45 -1.7,0 -3,1.34 -3,3.09 0,0.25 0,0.64 0.1,1.09 l -0.5,0.19 z"
           inkscape:connector-curvature="0"
           style="fill:#ffffff;fill-opacity:1;stroke-width:0" /></g>    </g>
    <g
       style="font-style:normal;font-variant:normal;font-weight:normal;font-stretch:normal;letter-spacing:normal;word-spacing:normal;text-anchor:start;fill:#d49131;fill-opacity:1;fill-rule:evenodd;stroke:#d49131;stroke-linecap:butt;stroke-linejoin:miter;stroke-miterlimit:10.43299961;stroke-dasharray:none;stroke-dashoffset:0;stroke-opacity:1"
       id="g3123"
       transform="matrix(0.1990131,0,0,-0.1990131,-120.56407,127.79646)"
       xml:space="preserve"
       stroke-miterlimit="10.433"
       font-style="normal"
       font-variant="normal"
       font-weight="normal"
       font-stretch="normal"
       font-size-adjust="none"
       letter-spacing="normal"
       word-spacing="normal"><path
         style="fill:#d49131;fill-opacity:1;stroke:#d49131;stroke-width:0;stroke-opacity:1"
         inkscape:connector-curvature="0"
         d="m 1187.2,350.83 v -0.18 -0.18 -0.17 -0.17 -0.17 -0.18 -0.17 -0.18 l -0.1,-0.19 v -0.09 -0.1 -0.1 -0.11 -0.11 l -0.1,-0.11 v -0.11 -0.12 -0.12 l -0.1,-0.13 v -0.13 -0.14 -0.14 l -0.1,-0.15 c 0,-0.59 -0.1,-0.73 -0.1,-1.09 0.7,-0.39 1.5,-0.6 2.1,-0.6 1.6,0 3.6,1.44 5.1,3.79 l 3.8,5.82 0.6,-3.43 c 0.6,-4.24 1.7,-6.18 3.5,-6.18 1.1,0 2.7,0.85 4.3,2.3 l 2.5,2.19 -0.5,0.94 c -1.8,-1.49 -3,-2.24 -3.8,-2.24 -0.8,0 -1.4,0.5 -1.9,1.5 -0.5,0.94 -1,2.78 -1.2,4.24 l -1,5.03 1.8,2.44 c 2.3,3.23 3.7,4.39 5.2,4.39 0.8,0 1.4,-0.41 1.7,-1.16 l 0.7,0.2 0.7,4.24 c -0.6,0.34 -1,0.5 -1.5,0.5 -2,0 -4,-1.8 -7,-6.38 l -1.9,-2.75 -0.3,2.39 c -0.6,4.94 -1.9,6.74 -4.9,6.74 -1.3,0 -2.4,-0.41 -2.8,-1.05 l -2.9,-4.14 0.8,-0.5 c 1.5,1.7 2.5,2.39 3.5,2.39 1.6,0 2.7,-2.03 3.6,-6.92 l 0.5,-3.08 -2,-3.09 c -2.1,-3.35 -3.8,-4.94 -5.2,-4.94 -0.8,0 -1.3,0.2 -1.4,0.45 l -0.6,1.39 z"
         id="path3117" /><polygon
         style="fill:#d49131;fill-opacity:1;stroke:#d49131;stroke-width:0;stroke-opacity:1"
         points="1225.4,358.44 1237.4,358.44 1237.4,346.44 1240.3,346.44 1240.3,358.44 1252.3,358.44 1252.3,361.39 1240.3,361.39 1240.3,373.24 1237.4,373.24 1237.4,361.39 1225.4,361.39 "
         id="polygon3119" /><path
         style="fill:#d49131;fill-opacity:1;stroke:#d49131;stroke-width:0;stroke-opacity:1"
         inkscape:connector-curvature="0"
         d="m 1268.8,337.47 v -0.06 -0.06 l -0.1,-0.07 v -0.06 -0.06 -0.05 -0.06 -0.06 -0.05 -0.06 -0.05 -0.05 -0.05 -0.05 -0.05 -0.05 c 0,-2.14 1.9,-3.89 4.1,-3.89 5.3,0 10.8,6.17 13.7,15.39 l 7,21.92 -0.5,0.46 c -1.5,-0.55 -2.6,-0.85 -3.7,-0.96 l -1.7,-6.57 c -0.6,-2.33 -2.4,-5.97 -4,-8.41 -1.8,-2.55 -4.2,-4.73 -5.3,-4.73 -0.6,0 -1.1,1.14 -1,2.39 v 0.64 l 0.8,9.67 c 0.1,1.55 0.2,3.44 0.2,4.83 0,2.23 -0.4,3.14 -1.2,3.14 -0.7,0 -1.4,-0.35 -3.8,-2 l -4,-2.78 0.5,-0.91 2.5,1.5 0.2,0.16 c 0.5,0.29 0.8,0.43 1.1,0.43 0.6,0 1.1,-0.93 1.1,-2.57 0,-0.07 0,-0.36 -0.1,-0.75 l -0.8,-12.11 -0.1,-2 c 0,-2.1 0.9,-3.54 2.1,-3.54 1.9,0 6.1,4.24 9.8,9.86 l -2.4,-8.51 c -2.6,-8.81 -5.1,-12.45 -8.5,-12.45 -1.8,0 -3.1,1.34 -3.1,3.09 0,0.25 0,0.64 0.1,1.09 l -0.5,0.19 z"
         id="path3121" /></g>    <g
       transform="matrix(0.663377,0,0,0.663377,-118.53772,-28.525802)"
       id="g3175"
       style="fill:#2054c1;fill-opacity:1">
      <g
         style="font-style:normal;font-variant:normal;font-weight:normal;font-stretch:normal;letter-spacing:normal;word-spacing:normal;text-anchor:start;fill:#2054c1;fill-opacity:1;fill-rule:evenodd;stroke:#000000;stroke-linecap:butt;stroke-linejoin:miter;stroke-miterlimit:10.43299961;stroke-dasharray:none;stroke-dashoffset:0;stroke-opacity:1"
         id="g3173"
         transform="matrix(0.3,0,0,-0.3,-52.5,222.75)"
         xml:space="preserve"
         stroke-miterlimit="10.433"
         font-style="normal"
         font-variant="normal"
         font-weight="normal"
         font-stretch="normal"
         font-size-adjust="none"
         letter-spacing="normal"
         word-spacing="normal"><path
           style="fill:#2054c1;fill-opacity:1;stroke-width:0"
           inkscape:connector-curvature="0"
           d="m 1187.2,350.83 v -0.18 -0.18 -0.17 -0.17 -0.17 -0.18 -0.17 -0.18 l -0.1,-0.19 v -0.09 -0.1 -0.1 -0.11 -0.11 l -0.1,-0.11 v -0.11 -0.12 -0.12 l -0.1,-0.13 v -0.13 -0.14 -0.14 l -0.1,-0.15 c 0,-0.59 -0.1,-0.73 -0.1,-1.09 0.7,-0.39 1.5,-0.6 2.1,-0.6 1.6,0 3.6,1.44 5.1,3.79 l 3.8,5.82 0.6,-3.43 c 0.6,-4.24 1.7,-6.18 3.5,-6.18 1.1,0 2.7,0.85 4.3,2.3 l 2.5,2.19 -0.5,0.94 c -1.8,-1.49 -3,-2.24 -3.8,-2.24 -0.8,0 -1.4,0.5 -1.9,1.5 -0.5,0.94 -1,2.78 -1.2,4.24 l -1,5.03 1.8,2.44 c 2.3,3.23 3.7,4.39 5.2,4.39 0.8,0 1.4,-0.41 1.7,-1.16 l 0.7,0.2 0.7,4.24 c -0.6,0.34 -1,0.5 -1.5,0.5 -2,0 -4,-1.8 -7,-6.38 l -1.9,-2.75 -0.3,2.39 c -0.6,4.94 -1.9,6.74 -4.9,6.74 -1.3,0 -2.4,-0.41 -2.8,-1.05 l -2.9,-4.14 0.8,-0.5 c 1.5,1.7 2.5,2.39 3.5,2.39 1.6,0 2.7,-2.03 3.6,-6.92 l 0.5,-3.08 -2,-3.09 c -2.1,-3.35 -3.8,-4.94 -5.2,-4.94 -0.8,0 -1.3,0.2 -1.4,0.45 l -0.6,1.39 z"
           id="path3167" /><polygon
           style="fill:#2054c1;fill-opacity:1;stroke-width:0"
           points="1252.3,358.44 1252.3,361.39 1225.4,361.39 1225.4,358.44 "
           id="polygon3169" /><path
           style="fill:#2054c1;fill-opacity:1;stroke-width:0"
           inkscape:connector-curvature="0"
           d="m 1268.8,337.47 v -0.06 -0.06 l -0.1,-0.07 v -0.06 -0.06 -0.05 -0.06 -0.06 -0.05 -0.06 -0.05 -0.05 -0.05 -0.05 -0.05 -0.05 c 0,-2.14 1.9,-3.89 4.1,-3.89 5.3,0 10.8,6.17 13.7,15.39 l 7,21.92 -0.5,0.46 c -1.5,-0.55 -2.6,-0.85 -3.7,-0.96 l -1.7,-6.57 c -0.6,-2.33 -2.4,-5.97 -4,-8.41 -1.8,-2.55 -4.2,-4.73 -5.3,-4.73 -0.6,0 -1.1,1.14 -1,2.39 v 0.64 l 0.8,9.67 c 0.1,1.55 0.2,3.44 0.2,4.83 0,2.23 -0.4,3.14 -1.2,3.14 -0.7,0 -1.4,-0.35 -3.8,-2 l -4,-2.78 0.5,-0.91 2.5,1.5 0.2,0.16 c 0.5,0.29 0.8,0.43 1.1,0.43 0.6,0 1.1,-0.93 1.1,-2.57 0,-0.07 0,-0.36 -0.1,-0.75 l -0.8,-12.11 -0.1,-2 c 0,-2.1 0.9,-3.54 2.1,-3.54 1.9,0 6.1,4.24 9.8,9.86 l -2.4,-8.51 c -2.6,-8.81 -5.1,-12.45 -8.5,-12.45 -1.8,0 -3.1,1.34 -3.1,3.09 0,0.25 0,0.64 0.1,1.09 l -0.5,0.19 z"
           id="path3171" /></g>    </g>
  </g>
</svg>
